<?xml version="1.0" encoding="UTF-8" standalone="no"?>
<!-- Created with Inkscape (http://www.inkscape.org/) -->

<svg
   width="110.16278mm"
   height="96.869019mm"
   viewBox="0 0 110.16278 96.869021"
   version="1.1"
   id="svg5"
   xml:space="preserve"
   inkscape:version="1.2.1 (9c6d41e410, 2022-07-14)"
   sodipodi:docname="comment.svg"
   xmlns:inkscape="http://www.inkscape.org/namespaces/inkscape"
   xmlns:sodipodi="http://sodipodi.sourceforge.net/DTD/sodipodi-0.dtd"
   xmlns="http://www.w3.org/2000/svg"
   xmlns:svg="http://www.w3.org/2000/svg"><sodipodi:namedview
     id="namedview7"
     pagecolor="#ffffff"
     bordercolor="#000000"
     borderopacity="0.25"
     inkscape:showpageshadow="2"
     inkscape:pageopacity="0.0"
     inkscape:pagecheckerboard="0"
     inkscape:deskcolor="#d1d1d1"
     inkscape:document-units="mm"
     showgrid="false"
     inkscape:zoom="1.0182338"
     inkscape:cx="-84.459977"
     inkscape:cy="72.674864"
     inkscape:window-width="2560"
     inkscape:window-height="1017"
     inkscape:window-x="-8"
     inkscape:window-y="-8"
     inkscape:window-maximized="1"
     inkscape:current-layer="svg5" /><defs
     id="defs2" /><g
     inkscape:label="Molde"
     inkscape:groupmode="layer"
     id="layer1"
     transform="translate(-80.07912,-128.97401)"
     style="fill:none"
     sodipodi:insensitive="true"><rect
       style="fill:none;stroke-width:11.2"
       id="rect234"
       width="133.35001"
       x="68.485512"
       y="107.03013"
       height="133.35001" /></g><path
     d="M -11.01646,-9.687071 H 121.17925 V 106.55597 H -11.01646 Z"
     fill="none"
     id="path899"
     style="stroke-width:5.16513" /><path
     id="path901"
     style="fill:#000000;stroke-width:5.16513"
     d="M 11.016381,0 C 4.957423,0 0,4.358953 0,9.686747 V 96.86902 L 22.032246,77.495012 h 77.114156 c 6.058948,0 11.016378,-4.358952 11.016378,-9.686748 V 9.686747 C 110.16278,4.358953 105.20535,0 99.146402,0 Z m 14.260629,25.277527 3.98942,1.839681 -13.660665,28.412219 -4.021976,-1.839681 z m 72.846202,0 3.988898,1.839681 -13.660658,28.412219 -4.021464,-1.839681 z m -65.128327,6.528801 h 4.884456 l -0.700215,6.138643 5.617228,-2.57297 1.514636,4.640544 -6.073531,1.221114 4.168221,4.575431 -3.923792,2.832902 -3.044775,-5.340242 -3.044775,5.340242 -3.923792,-2.832902 4.168221,-4.575431 -6.073531,-1.221114 1.51412,-4.640544 5.617744,2.57297 z m 42.170552,0 h 4.884457 l -0.700216,6.138643 5.617228,-2.57297 1.514637,4.640544 -6.073532,1.221114 4.168221,4.575431 -3.923791,2.832902 -3.044775,-5.340242 -3.044776,5.340242 -3.923791,-2.832902 4.168221,-4.575431 -6.073531,-1.221114 1.514119,-4.640544 5.617745,2.57297 z" /></svg>
