<?xml version="1.0" encoding="UTF-8" standalone="no"?>
<!-- Created with Inkscape (http://www.inkscape.org/) -->

<svg
   width="95.428757mm"
   height="95.429039mm"
   viewBox="0 0 95.428756 95.429038"
   version="1.1"
   id="svg1259"
   inkscape:version="1.2.1 (9c6d41e410, 2022-07-14)"
   sodipodi:docname="gandalf.svg"
   xml:space="preserve"
   xmlns:inkscape="http://www.inkscape.org/namespaces/inkscape"
   xmlns:sodipodi="http://sodipodi.sourceforge.net/DTD/sodipodi-0.dtd"
   xmlns="http://www.w3.org/2000/svg"
   xmlns:svg="http://www.w3.org/2000/svg"><sodipodi:namedview
     id="namedview1261"
     pagecolor="#ffffff"
     bordercolor="#000000"
     borderopacity="0.25"
     inkscape:showpageshadow="2"
     inkscape:pageopacity="0.0"
     inkscape:pagecheckerboard="0"
     inkscape:deskcolor="#d1d1d1"
     inkscape:document-units="mm"
     showgrid="false"
     inkscape:zoom="2.1745121"
     inkscape:cx="273.6246"
     inkscape:cy="195.44614"
     inkscape:window-width="2560"
     inkscape:window-height="1017"
     inkscape:window-x="-8"
     inkscape:window-y="-8"
     inkscape:window-maximized="1"
     inkscape:current-layer="layer1" /><defs
     id="defs1256" /><g
     inkscape:label="Camada 1"
     inkscape:groupmode="layer"
     id="layer1"
     transform="translate(-39.043223,-83.447021)"><path
       id="rect2985"
       style="color:#000000;fill:#ffd033;fill-opacity:1;stroke:none;stroke-width:0.0874456"
       d="M 2.3407509,120.35266 C 1.574424,119.58633 0.51442281,119.11393 -0.65997591,119.11393 H -62.136874 c -2.348798,0 -4.239459,1.89066 -4.239459,4.23945 l -3.65e-4,61.47727 c 0,2.3488 1.890661,4.23946 4.239458,4.23946 h 61.4776295 c 2.3487974,0 4.2394585,-1.89066 4.2394585,-4.23946 l -3.654e-4,-61.47727 c 0,-1.17439 -0.4724047,-2.2344 -1.2387317,-3.00072 z m -3.3738079,3.37381 c 0.68970056,0.6897 1.11485843,1.64375 1.11485843,2.70072 v 55.32928 c 0,2.11394 -1.70164863,3.81559 -3.81558573,3.81559 H -59.063066 c -2.113937,0 -3.815585,-1.70165 -3.815585,-3.81559 v -55.32928 c 0,-2.11393 1.701648,-3.81558 3.815585,-3.81558 h 55.3292817 c 1.0569685,0 2.0110267,0.42515 2.7007273,1.11486 z"
       transform="rotate(-45)" /><path
       id="path2985"
       style="fill:#000000;stroke:none;stroke-width:0.0271819;stroke-linecap:round;stroke-linejoin:round;stroke-opacity:1"
       d="m 74.763758,101.38701 -5.17e-4,5.2e-4 c -0.308695,0.30007 -0.653624,0.59206 -0.879533,0.91053 l -4.83278,21.30671 c -0.795279,-0.3171 -1.559494,-0.85936 -2.334224,-1.64176 -0.09336,-0.11952 -0.673464,0.72863 -0.533301,0.83251 0.65332,0.50599 1.332938,0.91009 2.033984,1.21233 -0.03453,0.0501 -0.06452,0.11163 -0.08733,0.185 -0.145827,0.48745 -0.300656,1.09732 -0.141593,1.13068 0.163335,0.51792 -0.01282,1.21257 0.552421,1.17306 l -0.178284,1.58853 c -0.0057,-9.4e-4 -0.01078,-0.002 -0.01654,-0.003 -0.0045,-7.2e-4 -0.0094,-4.8e-4 -0.01395,5.2e-4 -0.0092,0.002 -0.01801,0.007 -0.02687,0.015 v 5.2e-4 c -0.0042,0.004 -0.0083,0.008 -0.0124,0.0124 -0.05224,0.0588 -0.09213,0.18846 -0.06201,0.19379 0.0028,3.1e-4 0.0055,7.5e-4 0.0083,0.001 a 1.1149233,1.1149233 0 0 0 -0.729154,0.81339 1.1149233,1.1149233 0 0 0 0.848527,1.32912 1.1149233,1.1149233 0 0 0 1.328601,-0.84801 1.1149233,1.1149233 0 0 0 -0.314709,-1.0418 c 8.03e-4,2.4e-4 0.0018,2.8e-4 0.0026,5.2e-4 8.43e-4,2.3e-4 0.0018,-1e-5 0.0026,0 0.0029,8.9e-4 0.0054,0.002 0.0083,0.003 2.25e-4,-0.002 7.44e-4,-0.005 10e-4,-0.007 0.01983,-0.0195 0.03621,-0.0944 0.03359,-0.15606 0.0076,-0.0421 0.0057,-0.0739 -0.02584,-0.0822 -0.0022,-5.5e-4 -0.004,-10e-4 -0.0062,-0.002 l 0.29714,-0.94051 c 0.488944,0.61121 1.023951,1.16976 1.701705,1.21749 1.181092,1.6068 3.566127,3.35187 2.923852,5.42861 -0.08941,2.9724 -0.888326,2.37748 -0.07648,5.28133 0.146812,2.0994 3.122004,2.83755 3.833875,0.84905 0.45789,-1.6672 4.087684,-2.27906 4.164603,-2.36782 -0.04372,2.07009 -1.228087,6.5714 -1.049548,8.44858 -0.649292,2.17483 -1.756456,4.2337 -3.13986,5.81309 -0.188185,1.82978 1.534376,4.22451 -0.52865,5.23327 -0.863593,0.56124 -0.376045,2.26741 -1.669666,2.07067 -0.256232,0.93989 -1.459233,1.77294 0.280087,1.81023 1.124048,0.57136 3.986118,-1.60568 5.082894,-0.01 2.608956,-3.7e-4 3.785789,-0.55929 6.494177,-0.971 2.570843,0.41171 3.68803,0.97063 6.164481,0.971 1.041075,-1.59627 3.758063,0.58077 4.825029,0.01 1.650985,-0.0373 0.508839,-0.87034 0.265617,-1.81023 -1.227924,0.19674 -0.765181,-1.50943 -1.584916,-2.07067 -1.958256,-1.00876 -0.323151,-3.40349 -0.501779,-5.23327 -1.313147,-1.57939 -2.364377,-3.63826 -2.980696,-5.81309 0.169472,-1.87718 -1.281933,-7.52984 -1.323434,-9.59993 0.07301,0.0888 1.332179,1.6215 1.766818,3.28869 0.675714,1.98851 5.572442,0.67467 5.711795,-1.42472 0.77062,-2.9039 0.57011,-0.58139 0.48524,-3.55379 -0.609652,-2.0767 1.97843,-3.01618 3.09955,-4.62297 0.32231,-0.0239 0.54773,-0.0889 0.72967,-0.19275 2.01173,10.51155 3.94757,21.74389 3.94757,21.74389 l 1.11982,-0.0222 c 0,0 -1.12866,-5.4754 -1.23299,-6.03581 -1.00609,-5.40433 -2.15807,-12.64224 -2.48616,-14.60893 -0.0409,-0.24531 -0.19507,-1.06813 -0.39791,-2.1394 0.0265,-0.033 0.0485,-0.0628 0.077,-0.0971 0.9636,0.38712 0.69654,-0.47102 0.87902,-1.08056 0.15098,-0.0334 0.004,-0.64324 -0.13488,-1.13068 -0.16245,-0.55031 -1.14455,-0.63412 -1.24747,0.0698 -0.5579,-2.92256 -1.18132,-6.16242 -1.18132,-6.16242 0,0 -1.79932,-8.0637 -1.78439,-8.44134 0.0149,-0.37813 0.23928,-2.29305 0.2403,-2.5244 0.001,-0.23135 -0.72967,-0.76636 -0.72967,-0.76636 l -0.185,-0.0274 c 0,0 0.45877,-1.26111 0.39894,-1.65571 -0.0598,-0.39462 -0.43202,-0.70797 -0.43202,-0.70797 0,0 0.62124,-2.32851 0.58808,-2.78536 -0.027,-0.3712 -0.3814,-0.85976 -0.68161,-0.86248 -0.0693,-6.2e-4 -0.1355,0.0247 -0.19431,0.0832 -0.31364,0.31213 -0.96996,1.20096 -0.96996,1.20096 0,0 0.40499,1.32264 0.08061,1.53996 -0.324375,0.21731 -0.796847,-0.57723 -0.796847,-0.57723 0,0 -0.36187,1.01449 -0.176217,1.22887 0.18565,0.21439 0.571607,0.0687 0.613916,0.34778 0.04229,0.27905 -0.124942,1.53294 -0.100769,1.69241 0.02421,0.15945 0.608227,0.30747 0.608227,0.30747 l 0.25425,0.16226 c 0,0 -0.563548,0.829 -0.477488,1.05989 0.08605,0.23092 0.332368,0.84374 0.543638,0.89038 0.21126,0.0467 0.54002,0.19637 0.54002,0.19637 0,0 -0.37697,0.8802 -0.34675,1.07952 0.012,0.079 1.36519,6.33381 2.85357,13.86066 -0.0276,0.0202 -0.0547,0.0392 -0.0837,0.0615 -0.10797,0.6322 -0.92841,0.79801 -0.94567,1.42627 -0.006,1.11613 -1.47374,2.70232 -3.133146,3.01997 -0.188043,0.036 -0.435294,-0.93919 -0.624768,-0.9095 -1.121496,0.17576 -2.261425,0.56513 -2.944523,0.61753 -0.788529,0.30732 -1.985532,0.74521 -2.898531,-0.24598 -0.739381,-1.02724 -2.684112,-1.10853 -3.238562,-2.07688 -0.09904,0.41641 -0.166214,0.84123 -0.167432,1.24902 -0.0038,1.25164 -0.396009,2.89905 -0.439249,4.15582 -0.08101,2.35535 1.051316,4.233 1.051615,6.59288 -0.731611,-0.75722 -0.735141,-1.67152 -1.247469,-2.78329 -0.02234,1.15826 -0.01952,5.15542 -0.135392,5.84667 -1.000227,-1.55444 -1.792663,-3.03476 -2.321822,-5.60844 -0.04132,1.90994 -0.163806,0.7008 -0.205156,2.61069 -0.403285,-1.28806 -0.966297,-2.53803 -1.209228,-3.86333 -0.574347,-3.95299 0.110782,-6.74921 -0.214458,-7.52926 -0.853252,0.42693 -2.034157,0.68124 -2.583821,1.40612 -0.961852,0.99119 -4.070931,0.35149 -5.022949,-0.87695 -0.238621,-0.0174 -0.489836,0.92579 -0.746208,0.87592 -1.800172,-0.35017 -4.14156,-2.98515 -4.965589,-3.91398 -0.0135,-0.46669 -0.199202,-0.89713 -0.340547,-1.34668 0.78298,0.0304 1.582089,-0.0487 2.393135,-0.24185 0.136005,-0.0349 -0.0048,-1.06866 -0.187585,-0.9927 -0.898926,0.33364 -1.718116,0.50604 -2.487704,0.50849 -0.07836,-0.1042 -0.152004,-0.173 -0.219624,-0.21032 l 4.539257,-21.15116 c -0.08189,-0.43281 -0.243891,-0.81516 -0.406176,-1.19683 z m 8.045503,11.75639 c -0.07692,0.001 -0.153134,0.007 -0.228409,0.0155 -0.439448,0.0521 -0.84785,0.24197 -1.191142,0.68833 -0.360217,2.18911 1.047998,5.48287 1.047998,5.48287 0,0 -0.0035,-0.0142 -0.0047,-0.0202 0.0072,0.0174 0.01344,0.0315 0.01344,0.0315 0,0 -0.94217,-4.27204 0.04754,-4.81624 0.284377,0.37336 1.133554,1.22986 1.644344,1.62057 0.15305,0.11708 0.406614,0.38199 0.673861,0.72295 0.392693,0.50291 0.812726,1.16793 0.984953,1.76837 0.09659,0.33675 -0.488284,0.93805 -0.567924,1.45521 -0.0051,0.0329 -0.01,0.0657 -0.01499,0.0987 -1.714747,0.37343 -3.897795,1.00426 -3.992005,2.49545 -0.0086,0.13565 0.03976,0.26384 0.136426,0.38499 0.371466,0.48201 1.780183,0.84856 3.437516,1.07746 0.0063,0.0525 0.01068,0.10406 0.01912,0.15761 0.302254,0.11175 0.603887,0.22251 0.911572,0.31419 -0.07798,-0.0231 -0.156317,-0.0463 -0.234094,-0.0718 -0.192338,0.59447 -0.07743,0.77983 0.04754,1.25884 0.09279,0.35565 0.125107,0.70164 0.171049,1.01234 0.0289,0.10817 0.04751,0.21 0.05684,0.30593 0.09488,0.41782 0.273935,0.73577 0.780314,0.85524 0,0 1.185016,0.60877 1.754932,0.41393 0.660444,-0.22574 1.196125,-0.91767 1.260905,-1.64589 l 0.97255,-2.42776 c 0.0061,-9.3e-4 0.0125,-0.002 0.0186,-0.003 0.0033,-3.4e-4 0.0065,-7.6e-4 0.0098,-10e-4 v -5.2e-4 c 2.41781,-0.37575 3.396333,-1.81325 3.26285,-2.91455 -0.02321,-0.19148 -0.105573,-0.36991 -0.239779,-0.5333 -0.473742,-0.58937 -2.371722,-0.98712 -3.830257,-1.09141 -0.10318,-0.43256 -0.237501,-0.93271 -0.389123,-1.28415 -0.37377,-0.86638 -0.594207,-1.20379 -1.02216,-1.77147 -0.01432,-0.019 -0.02908,-0.0378 -0.04393,-0.0563 -0.445941,-0.56205 -1.125607,-0.88933 -1.645894,-1.42679 -0.707654,-0.73101 -1.284093,-1.62602 -2.18333,-1.82521 -0.551529,-0.12213 -1.126062,-0.28087 -1.664498,-0.27078 z m -13.941784,11.11301 c 0.01434,0.005 0.02854,0.0103 0.04289,0.015 -0.01422,-0.004 -0.02866,-0.008 -0.04289,-0.0124 -1.89e-4,-7.9e-4 1.9e-4,-0.002 0,-0.003 z m 1.408699,1.25006 c 0.171491,0.65759 0.67845,1.08995 -0.205155,0.64802 z" /></g></svg>
