<?xml version="1.0" encoding="UTF-8" standalone="no"?>
<!-- Created with Inkscape (http://www.inkscape.org/) -->

<svg
   width="132.29167mm"
   height="132.29167mm"
   viewBox="0 0 132.29167 132.29167"
   version="1.1"
   id="svg1259"
   inkscape:version="1.2.1 (9c6d41e410, 2022-07-14)"
   sodipodi:docname="square-wheel.svg"
   xmlns:inkscape="http://www.inkscape.org/namespaces/inkscape"
   xmlns:sodipodi="http://sodipodi.sourceforge.net/DTD/sodipodi-0.dtd"
   xmlns="http://www.w3.org/2000/svg"
   xmlns:svg="http://www.w3.org/2000/svg">
  <sodipodi:namedview
     id="namedview1261"
     pagecolor="#ffffff"
     bordercolor="#000000"
     borderopacity="0.25"
     inkscape:showpageshadow="2"
     inkscape:pageopacity="0.0"
     inkscape:pagecheckerboard="0"
     inkscape:deskcolor="#d1d1d1"
     inkscape:document-units="mm"
     showgrid="false"
     inkscape:zoom="1.5376122"
     inkscape:cx="271.19971"
     inkscape:cy="247.13643"
     inkscape:window-width="2560"
     inkscape:window-height="1017"
     inkscape:window-x="-8"
     inkscape:window-y="-8"
     inkscape:window-maximized="1"
     inkscape:current-layer="layer1" />
  <defs
     id="defs1256" />
  <g
     inkscape:label="Camada 1"
     inkscape:groupmode="layer"
     id="layer1"
     transform="translate(-24.43453,-86.725372)">
    <path
       id="rect1380-3-2"
       style="color:#000000;fill:#696969;fill-opacity:1"
       d="M 37.663697 86.725372 C 30.334759 86.725372 24.43453 92.625601 24.43453 99.954539 L 24.43453 205.78787 C 24.43453 213.1168 30.334759 219.01704 37.663697 219.01704 L 143.49703 219.01704 C 150.82596 219.01704 156.7262 213.1168 156.7262 205.78787 L 156.7262 99.954539 C 156.7262 92.625601 150.82596 86.725372 143.49703 86.725372 L 37.663697 86.725372 z M 45.601197 99.954539 L 135.55953 99.954539 C 139.9569 99.954539 143.49703 103.49467 143.49703 107.89204 L 143.49703 197.85037 C 143.49703 202.24774 139.9569 205.78787 135.55953 205.78787 L 45.601197 205.78787 C 41.203834 205.78787 37.663697 202.24774 37.663697 197.85037 L 37.663697 107.89204 C 37.663697 103.49467 41.203834 99.954539 45.601197 99.954539 z " />
    <path
       id="path1720"
       style="color:#000000;fill:#393939;fill-opacity:1"
       d="M 49.433521 103.92381 C 45.154854 103.92381 41.632964 107.44576 41.632963 111.72436 L 41.632963 194.01753 C 41.632963 198.29623 45.154854 201.81861 49.433521 201.81861 L 131.72669 201.81861 C 136.0053 201.81861 139.52725 198.29623 139.52725 194.01753 L 139.52725 111.72436 C 139.52725 107.44575 136.0053 103.92381 131.72669 103.92381 L 49.433521 103.92381 z M 49.616455 108.94314 L 88.484367 108.94314 L 88.484367 144.35596 L 85.44631 144.35596 C 85.324861 144.35596 85.219639 144.41469 85.101111 144.42779 L 49.616455 108.94314 z M 92.676359 108.94314 L 131.54427 108.94314 L 96.059615 144.42779 C 95.941095 144.41469 95.835867 144.35596 95.714417 144.35596 L 92.676359 144.35596 L 92.676359 108.94314 z M 46.652295 111.9073 L 82.136951 147.39195 C 82.123821 147.51039 82.067188 147.61579 82.067188 147.73715 L 82.067188 150.77521 L 46.652295 150.77521 L 46.652295 111.9073 z M 134.50791 111.90781 L 134.50791 150.77521 L 99.095606 150.77521 L 99.095606 147.73715 C 99.095606 147.6157 99.036926 147.51048 99.023776 147.39195 L 134.50791 111.90781 z M 46.652295 154.9672 L 82.067188 154.9672 L 82.067188 158.00526 C 82.067188 158.12662 82.123821 158.23201 82.136951 158.35046 L 46.652295 193.83563 L 46.652295 154.9672 z M 99.095606 154.9672 L 134.50791 154.9672 L 134.50791 193.8346 L 99.023776 158.35046 C 99.036926 158.23193 99.095606 158.12671 99.095606 158.00526 L 99.095606 154.9672 z M 85.101111 161.31462 C 85.219639 161.32772 85.324861 161.38645 85.44631 161.38645 L 88.484367 161.38645 L 88.484367 196.79876 L 49.616972 196.79876 L 85.101111 161.31462 z M 96.059615 161.31462 L 131.54375 196.79876 L 92.676359 196.79876 L 92.676359 161.38645 L 95.714417 161.38645 C 95.835867 161.38645 95.941092 161.32772 96.059615 161.31462 z " />
  </g>
</svg>
