<?xml version="1.0" encoding="UTF-8" standalone="no"?>
<!-- Created with Inkscape (http://www.inkscape.org/) -->

<svg
   width="317.5mm"
   height="166.15834mm"
   viewBox="0 0 317.5 166.15834"
   version="1.1"
   id="svg837"
   inkscape:version="1.1 (c68e22c387, 2021-05-23)"
   sodipodi:docname="ajude.svg"
   inkscape:export-filename="E:\repositorios\livro-pog\assets\images\ajude.png"
   inkscape:export-xdpi="96"
   inkscape:export-ydpi="96"
   xmlns:inkscape="http://www.inkscape.org/namespaces/inkscape"
   xmlns:sodipodi="http://sodipodi.sourceforge.net/DTD/sodipodi-0.dtd"
   xmlns="http://www.w3.org/2000/svg"
   xmlns:svg="http://www.w3.org/2000/svg"
   xmlns:rdf="http://www.w3.org/1999/02/22-rdf-syntax-ns#"
   xmlns:cc="http://creativecommons.org/ns#"
   xmlns:dc="http://purl.org/dc/elements/1.1/">
  <defs
     id="defs831">
    <style
       type="text/css"
       id="style832">  .fil0 {fill:#F0F0F0} .fil1 {fill:#011627;fill-rule:nonzero}  </style>
    <clipPath
       id="clipPath914"
       clipPathUnits="userSpaceOnUse">
      <rect
         y="-10.221437"
         x="-498.63235"
         height="280"
         width="210"
         id="rect916"
         style="opacity:1;fill:#ffffff;fill-opacity:1;fill-rule:nonzero;stroke:none;stroke-width:0.989454;stroke-linecap:square;stroke-linejoin:miter;stroke-miterlimit:4;stroke-dasharray:none;stroke-dashoffset:0;stroke-opacity:1;paint-order:fill markers stroke" />
    </clipPath>
    <clipPath
       id="clipPath1084"
       clipPathUnits="userSpaceOnUse">
      <rect
         y="378.35519"
         x="-83.388092"
         height="280"
         width="210"
         id="rect1086"
         style="opacity:0.37;fill:#020202;fill-opacity:1;fill-rule:nonzero;stroke:none;stroke-width:7.965;stroke-linecap:round;stroke-linejoin:round;stroke-miterlimit:4;stroke-dasharray:none;stroke-dashoffset:0;stroke-opacity:1;paint-order:fill markers stroke" />
    </clipPath>
    <clipPath
       clipPathUnits="userSpaceOnUse"
       id="clipPath1152">
      <rect
         style="opacity:1;fill:#ffffff;fill-opacity:1;fill-rule:nonzero;stroke:none;stroke-width:8.10721;stroke-linecap:round;stroke-linejoin:round;stroke-miterlimit:4;stroke-dasharray:none;stroke-dashoffset:0;stroke-opacity:1;paint-order:fill markers stroke"
         id="rect1154"
         width="298.28461"
         height="129.15862"
         x="11.150303"
         y="134.10701" />
    </clipPath>
    <style
       type="text/css"
       id="style832-0">  .fil0 {fill:#F0F0F0} .fil1 {fill:#011627;fill-rule:nonzero}  </style>
    <clipPath
       id="clipPath914-9"
       clipPathUnits="userSpaceOnUse">
      <rect
         y="-10.221437"
         x="-498.63235"
         height="280"
         width="210"
         id="rect916-3"
         style="opacity:1;fill:#ffffff;fill-opacity:1;fill-rule:nonzero;stroke:none;stroke-width:0.989454;stroke-linecap:square;stroke-linejoin:miter;stroke-miterlimit:4;stroke-dasharray:none;stroke-dashoffset:0;stroke-opacity:1;paint-order:fill markers stroke" />
    </clipPath>
    <clipPath
       id="clipPath1084-8"
       clipPathUnits="userSpaceOnUse">
      <rect
         y="378.35519"
         x="-83.388092"
         height="280"
         width="210"
         id="rect1086-3"
         style="opacity:0.37;fill:#020202;fill-opacity:1;fill-rule:nonzero;stroke:none;stroke-width:7.965;stroke-linecap:round;stroke-linejoin:round;stroke-miterlimit:4;stroke-dasharray:none;stroke-dashoffset:0;stroke-opacity:1;paint-order:fill markers stroke" />
    </clipPath>
    <clipPath
       id="clipPath881"
       clipPathUnits="userSpaceOnUse">
      <rect
         y="88.97007"
         x="-539.48993"
         height="132.29167"
         width="423.33334"
         id="rect883"
         style="opacity:0.8;fill:#ffffff;fill-opacity:1;fill-rule:nonzero;stroke:none;stroke-width:7.5968;stroke-linecap:round;stroke-linejoin:round;stroke-miterlimit:4;stroke-dasharray:none;stroke-dashoffset:0;stroke-opacity:1;paint-order:fill markers stroke" />
    </clipPath>
    <clipPath
       clipPathUnits="userSpaceOnUse"
       id="clipPath1303">
      <rect
         y="415.45804"
         x="-229.38486"
         height="608.08521"
         width="1161.9463"
         id="rect1305"
         style="display:inline;fill:#303034;fill-opacity:1;fill-rule:nonzero;stroke:none;stroke-width:28.1336;stroke-linecap:round;stroke-linejoin:round;stroke-miterlimit:4;stroke-dasharray:none;stroke-dashoffset:0;stroke-opacity:1;paint-order:fill markers stroke" />
    </clipPath>
  </defs>
  <sodipodi:namedview
     id="base"
     pagecolor="#ffffff"
     bordercolor="#666666"
     borderopacity="1.0"
     inkscape:pageopacity="0.0"
     inkscape:pageshadow="2"
     inkscape:zoom="0.49497475"
     inkscape:cx="1070.7617"
     inkscape:cy="162.63456"
     inkscape:document-units="mm"
     inkscape:current-layer="layer2"
     showgrid="false"
     inkscape:window-width="1920"
     inkscape:window-height="1017"
     inkscape:window-x="2552"
     inkscape:window-y="9"
     inkscape:window-maximized="1"
     inkscape:pagecheckerboard="0" />
  <metadata
     id="metadata834">
    <rdf:RDF>
      <cc:Work
         rdf:about="">
        <dc:format>image/svg+xml</dc:format>
        <dc:type
           rdf:resource="http://purl.org/dc/dcmitype/StillImage" />
        <dc:title />
      </cc:Work>
    </rdf:RDF>
  </metadata>
  <g
     inkscape:groupmode="layer"
     id="layer2"
     inkscape:label="Fundo"
     style="display:inline"
     transform="translate(-2.7462761e-4,0.17443736)">
    <g
       id="layer1-8"
       transform="matrix(0.27324844,0,0,0.27324844,62.679328,-113.6977)"
       clip-path="url(#clipPath1303)">
      <g
         style="fill:#00aec7;fill-opacity:1;stroke-linejoin:miter"
         id="g1025">
        <path
           d="m -249.67053,275.82043 -0.23899,0.0237 -0.97915,863.61677 H 965.09424 l 5.6e-4,-863.3848 z"
           id="path1023" />
      </g>
      <g
         id="g1079">
        <g
           id="g1043">
          <g
             style="fill:#ec9a5e;fill-opacity:1;stroke-linejoin:miter"
             id="g1029">
            <path
               d="m 476.99554,591.5769 -69.58938,22.22693 -7.16413,15.08457 q -24.7376,52.6275 -31.10015,73.10574 -4.80371,13.92736 -7.719,26.92956 l -2.30832,12.70496 q -1.76864,12.44074 -0.83956,23.55988 l 1.73828,10.72266 3.01432,9.2337 q 3.70906,8.8933 9.7187,16.34717 6.00962,7.45367 13.84165,13.38943 l 8.16828,5.53683 q 8.56411,5.14767 18.23347,8.65977 9.6694,3.5124 19.96587,5.3108 4.56656,1.5625 20.56976,1.5625 4.21607,0 9.22592,-0.10844 12.39405,-1.06406 22.54367,-4.09446 10.55896,-3.0641 20.03668,-8.07583 l 9.0893,-5.46037 q 17.75574,-11.93337 27.3956,-30.4365 4.70157,-9.21324 6.663,-19.8398 l 1.1579,-10.9418 -0.4068,-11.5699 q -1.21046,-11.8851 -5.09907,-24.8204 -8.04468,-25.9761 -23.58868,-54.89394 -10.92139,-21.39941 -43.54731,-74.13306 z"
               id="path1027" />
          </g>
          <g
             style="fill:#ec9a5e;fill-opacity:1;stroke-linejoin:miter"
             id="g1033">
            <path
               d="m 466.412,450.46243 q -6.452,0 -27.89204,10.12213 -22.17682,-5.08426 -30.3273,-5.08426 -0.65784,0 -1.22431,0.0331 -11.58133,0.17608 -14.94131,5.58065 -2.41559,2.90983 -2.24011,10.18616 l 0.63424,5.38967 q 1.03138,5.80323 3.36255,12.9605 5.30458,17.3476 26.17608,60.36846 l 4.606,9.52634 44.51858,9.51114 q 13.23322,-67.62269 13.46612,-82.05664 0.6708,-8.29267 0.47404,-14.9014 l -0.46198,-6.09436 q -0.70132,-5.59241 -2.56716,-9.07694 -2.803,-6.45675 -12.30274,-6.45675 -0.37676,0 -0.76406,0.0101 -0.24504,-0.018 -0.5166,-0.018 z"
               id="path1031" />
          </g>
          <g
             style="fill:#000000;fill-opacity:0.105882;stroke-linejoin:miter"
             id="g1037">
            <path
               d="m 438.95798,603.72614 -31.55182,10.07769 -7.16413,15.08457 q -24.7376,52.6275 -31.10015,73.10574 -4.80371,13.92736 -7.719,26.92956 l -2.30832,12.70496 q -1.76864,12.44074 -0.83956,23.55988 l 1.73828,10.72266 3.01432,9.2337 q 3.70906,8.8933 9.7187,16.34717 6.00962,7.45367 13.84165,13.38943 l 8.16828,5.53683 q 8.56411,5.14767 18.23347,8.65977 9.6694,3.5124 19.96587,5.3108 4.5668,1.5625 20.57095,1.5625 1.3208,0 2.7197,-0.0105 -4.29802,-0.86969 -8.24982,-1.86103 -32.1977,-7.34137 -44.53348,-33.63317 -3.90994,-9.71332 -4.93072,-21.48786 -1.82248,-5.16833 1.79287,-38.0632 0.34421,-6.71445 8.87173,-40.50424 l 29.6048,-96.02256 q 0.0814,-0.3212 0.16153,-0.64266 z"
               id="path1035" />
          </g>
          <g
             style="fill:#000000;fill-opacity:0.105882;stroke-linejoin:miter"
             id="g1041">
            <path
               d="m 408.19266,455.5003 q -0.65781,0 -1.22431,0.0331 -11.58133,0.17608 -14.94131,5.58065 -2.41559,2.90983 -2.24011,10.18616 l 0.63424,5.38967 q 1.03138,5.80323 3.36255,12.9605 5.30458,17.3476 26.17608,60.36846 l 4.606,9.52634 19.43084,4.1513 q -0.26638,-38.4449 -18.62304,-105.9201 -11.72754,-2.2761 -17.18094,-2.2761 z"
               id="path1039" />
          </g>
        </g>
        <g
           style="fill:#ffb185;fill-opacity:1;stroke-linejoin:miter"
           id="g1047">
          <path
             d="m 415.47928,537.7035 q -1.34858,0 -2.26468,0.1971 -7.64307,0.6121 -10.34387,8.17325 -2.31079,5.16485 -0.42865,26.09405 l -1.19275,1.1068 q -9.71201,8.8269 -9.81293,14.0544 -0.58588,5.8007 3.70822,15.0589 -3.36499,14.50116 -1.07458,22.7329 1.71166,5.20277 5.87219,9.1645 2.51647,2.88086 12.83563,9.8885 4.83142,7.55126 7.87326,9.9472 3.5452,2.8754 5.95878,3.68804 4.75018,1.70086 10.74734,1.70086 10.3017,0 24.28286,-5.01885 22.79862,-7.45775 70.302,-29.284 l -1.2399,-70.71835 -34.84188,0.0503 -15.2243,-16.4345 q -24.53992,6.5035 -33.75752,6.5035 -0.67586,0 -1.26934,-0.0349 -4.49078,-0.1254 -8.00479,-1.1177 -14.09534,-5.04327 -15.05649,-5.04327 -0.10501,0 -0.0532,0.0603 -4.3515,-0.769 -7.01542,-0.769 z"
             id="path1045" />
        </g>
        <g
           style="fill:#ffffff;fill-opacity:1;stroke-linejoin:miter"
           id="g1051">
          <path
             d="m 558.40985,554.5699 -23.79145,6.6e-4 -23.79156,1.4e-4 q 2.6e-4,45.39726 6e-5,90.795 23.7915,5e-4 47.5831,7e-4 -1.5e-4,-45.39844 -1.5e-4,-90.7965 z"
             id="path1049" />
        </g>
        <g
           style="fill:#008080;fill-opacity:0.996078;stroke-linejoin:miter"
           id="g1055">
          <path
             d="m 389.6334,753.6373 v 5e-4 l 1e-4,7e-4 z"
             id="path1053" />
        </g>
        <g
           id="g1069">
          <g
             style="fill:#ffffff;fill-opacity:1;stroke-linejoin:miter"
             id="g1059">
            <path
               d="m 473.14716,689.9555 1.8e-4,10e-4 3e-5,-9.7e-4 6e-5,0.001 -9.8e-4,-4e-4 -9.7e-4,4e-4 8.2e-4,-4e-4 8.6e-4,-7e-4"
               id="path1057" />
          </g>
          <g
             style="fill:#ffffff;fill-opacity:1;stroke-linejoin:miter"
             id="g1063">
            <path
               d="m 476.2753,729.70245 10e-5,9.5e-4 2e-5,-9e-4 6e-5,10e-4 6e-5,-9e-4 3e-5,9.5e-4 3e-5,-8.5e-4 3e-5,10e-4 -10e-4,-6e-4 -10e-4,5e-4 8.2e-4,-5.4e-4 8.6e-4,-6.1e-4"
               id="path1061" />
          </g>
          <g
             style="fill:#ffffff;fill-opacity:1;stroke-linejoin:miter"
             id="g1067">
            <path
               d="m 471.47644,668.7482 -4.66824,0.36746 0.60876,7.7356 q -8.14844,2.18494 -12.73926,8.65228 -4.58548,6.53416 -4.11752,15.8916 0.75472,10.86243 5.33658,15.83026 3.35309,4.61707 15.4776,9.90924 l 1.95251,24.80806 q -2.51827,-0.1671 -5.44522,-3.50636 -2.0079,-3.2832 -1.97503,-8.92734 l -12.50168,-1.9686 0.59854,7.37385 q 1.074,7.9212 5.98682,13.41965 6.54052,6.9062 14.40728,7.2132 l 0.62979,8.0027 4.66828,-0.3672 -0.61923,-7.86925 q 6.55291,-0.87925 13.00613,-8.67321 4.7489,-7.01704 4.24023,-16.03571 -0.78775,-10.87329 -4.64343,-14.66513 -2.37778,-3.9921 -16.56042,-10.90933 l -1.97339,-25.07377 q 2.67876,0.1494 5.77063,3.5232 2.12183,3.35556 2.06027,9.01144 l 12.50174,1.96833 -0.25188,-3.20097 q -0.0781,-8.64254 -4.19767,-14.8728 -6.93497,-9.2573 -16.95395,-10.03494 z m -2.98864,21.7078 1.72146,21.8737 q -1.50659,-0.9551 -2.70813,-2.0734 l -1.12503,-1.15895 -0.97247,-1.24075 -0.8198,-1.3222 -0.66717,-1.4038 -0.51453,-1.4855 -0.36188,-1.56704 -0.20929,-1.64862 -0.0463,-1.59851 0.12247,-1.47603 0.2911,-1.3533 0.45986,-1.23066 0.62855,-1.10824 q 1.42569,-2.0937 4.20115,-3.2067 m 7.7908,39.2483 1.50708,0.9102 q 2.85336,1.9226 4.41992,4.6615 l 0.7029,1.4205 0.542,1.52256 0.38113,1.62469 0.22037,1.72665 0.0476,1.67795 -0.13258,1.53635 -0.31267,1.39487 -0.49286,1.25323 -0.67304,1.11163 q -1.52613,2.08177 -4.49343,3.03101 l -1.7164,-21.87114"
               id="path1065" />
          </g>
        </g>
        <g
           style="fill:#ffffff;fill-opacity:1;stroke-linejoin:miter"
           id="g1073">
          <path
             d="m 557.85815,487.892 v 2.4e-4 l 1.5e-4,2.8e-4 z"
             id="path1071" />
        </g>
        <g
           style="fill:#000000;fill-opacity:1;stroke-linejoin:miter"
           id="g1077">
          <path
             d="m 538.47345,548.0242 v 122.67105 l 426.62115,2.5e-4 V 548.02515 Z"
             id="path1075" />
        </g>
      </g>
      <g
         id="g1149">
        <g
           style="fill:#000000;fill-opacity:1;stroke-linejoin:miter"
           id="g1083">
          <path
             d="m 18.261766,495.7373 -2.56067,0.0436 q -22.5228986,1.09449 -37.888993,11.7735 -15.635898,12.03416 -20.226085,26.73072 -4.160485,11.5686 -5.755383,28.74854 -0.799605,3.4182 -0.94923,28.92614 l 22.183143,21.5693 105.298012,-37.5514 q 6.07403,-16.73844 3.66036,-30.6016 -0.804574,-4.6211 -2.5522,-8.9226 -5.8048,-11.84834 -8.17385,-14.42536 Q 61.214584,507.96454 46.352333,501.354 34.96936,496.1364 18.261766,495.7373 Z"
             id="path1081" />
        </g>
        <g
           style="fill:#000000;fill-opacity:1;stroke-linejoin:miter"
           id="g1087">
          <path
             d="m -129.26744,1007.7985 -2.88306,21.0864 q -8.9206,59.9 1.5118,110.5759 l 340.52405,5e-4 z"
             id="path1085" />
        </g>
        <g
           style="fill:#ffb185;fill-opacity:1;stroke-linejoin:miter"
           id="g1091">
          <path
             d="m 184.58315,880.4199 -59.49065,19.11935 q 22.47877,77.46551 37.8829,102.94115 15.17038,26.2193 34.3461,19.9161 5.94318,-1.8065 13.9303,-9.8057 7.75555,-10.0252 8.409,-13.1377 7.55858,-16.95804 5.05366,-35.2464 -2.53297,-19.27616 -15.24159,-43.8334 -6.35428,-12.2787 -15.25253,-25.8777 z"
             id="path1089" />
        </g>
        <g
           style="fill:#ffffff;fill-opacity:1;stroke-linejoin:miter"
           id="g1095">
          <path
             d="m -68.152214,690.50824 -4.233156,17.7088 -81.77564,45.74556 q -33.63577,76.79344 -28.50742,106.4422 0.29967,15.4987 4.10659,41.79533 l 103.38317,-6.06033 q -16.83867,104.4082 -16.6047,145.3871 -0.745706,52.3775 22.90945,97.9338 l 5.511283,10e-4 L 168.76996,1004.7349 145.35205,898.45337 194.24417,886.2833 Q 181.05504,829.91345 147.3018,765.883 L 59.65853,723 57.296753,701.57306 Z"
             id="path1093" />
        </g>
        <g
           style="fill:#46748b;fill-opacity:1;stroke-linejoin:miter"
           id="g1099">
          <path
             d="m 119.48114,1004.9657 -17.97343,0.5102 q -69.271554,3.2646 -118.499564,42.4748 -56.153806,45.2908 -51.009706,91.51 l 539.45932,2e-4 q -4.36053,-33.3462 -17.52556,-44.7183 l -18.49446,-17.3562 -25.08322,-15.6033 -31.6716,-13.8501 -38.26025,-12.0973 -44.84882,-10.3447 -51.43744,-8.5917 -58.02611,-6.8387 z"
             id="path1097" />
        </g>
        <g
           style="fill:#ffb185;fill-opacity:1;stroke-linejoin:miter"
           id="g1103">
          <path
             d="m -70.200096,882.4891 -104.162854,15.5023 q 6.2981,43.8457 16.21825,70.6648 8.52431,24.1619 32.7924,61.4208 l 69.842107,15.8255 q 13.396183,2.9538 16.3391,2.9538 0.431753,0 0.638513,-0.063 13.75606,-1.8292 23.511014,-2.3327 l 81.227706,-3.2687 q 23.926505,-1.2618 37.14006,-2.9205 29.5524,-3.7385 29.46253,-12.5155 h 0.004 q 16.94757,16.7681 31.96127,16.7681 1.10286,0 2.19527,-0.091 12.79007,-1.3352 24.36525,-14.7851 10.29864,-12.9783 8.03523,-24.7366 -6.84323,-20.2797 -48.43965,-24.3285 -3.29894,-0.2455 -6.71703,-0.2455 -9.85398,0 -20.6979,2.0415 -6.24622,0.75357 -39.84553,10.6177 -7.160204,1.771 -12.160456,2.369 -5.195709,0.704 -10.732177,0.704 -8.639924,-10e-5 -18.109829,-1.7144 -22.635198,-3.0361 -107.682324,-37.89284 8.45274,-22.93486 -5.124234,-73.70923 z"
             id="path1101" />
        </g>
        <g
           style="fill:#000000;fill-opacity:1;stroke-linejoin:miter"
           id="g1107">
          <path
             d="m 497.10825,863.85297 -220.19172,5.70103 -100.55102,170.2878 -143.563836,-2.8076 0.0311,15.2968 136.838356,24.6664 217.81209,-12.3238 8.50195,-25.9422 101.02423,-174.6929 z"
             id="path1105" />
        </g>
        <g
           style="fill:#ffbe80;fill-opacity:1;stroke-linejoin:miter"
           id="g1111">
          <path
             d="m 40.48462,1027.264 q -3.504094,0 -5.752076,0.2885 -3.760857,0.4299 -5.846947,2.0599 l -3.187931,15.226 q 9.158272,-0.3042 29.604366,-1.9695 16.886938,-1.3535 26.990593,-2.6073 18.699215,-2.3097 17.346255,-4.5834 l -0.02154,-0.034 q -2.27644,-2.66 -26.71519,-5.7723 -21.88406,-2.6084 -32.41753,-2.6084 z"
             id="path1109" />
        </g>
        <g
           style="fill:#ee00ff;fill-opacity:1;stroke-linejoin:miter"
           id="g1115">
          <path
             d="m -81.575516,1109.9064 11.334406,29.5542 h 2.80215 q -0.43993,-3.4585 -0.745885,-5.3377 z"
             id="path1113" />
        </g>
        <g
           style="fill:#ffb185;fill-opacity:1;stroke-linejoin:miter"
           id="g1119">
          <path
             d="m 4.5873446,539.3362 q -0.2050226,0 -0.4080316,0.002 l -0.032453,4e-4 q -16.10865,0.37427 -20.055515,8.7095 -1.248146,2.70426 -1.362209,6.88834 -0.238965,1.53246 0.903257,14.18543 0.02897,3.06483 -0.427651,4.19343 -0.557075,1.8168 -2.140556,3.1415 l -6.612166,4.3474 q -1.418794,1.5061 -1.844884,4.11454 -0.448971,2.7937 -0.163738,6.4054 l 1.389478,11.61621 -7.33716,1.36902 q 1.574158,-9.06337 -13.315712,-19.79023 -2.56369,-1.42484 -4.396214,-1.42484 -2.831466,0 -3.917262,3.4019 -2.508946,11.6756 3.573302,32.87365 1.90833,5.89535 4.29677,8.9007 1.243037,2.0722 7.517226,6.0224 0.972408,0.84425 1.703678,2.11325 1.78608,3.40506 2.231392,9.6034 1.694031,24.3281 -10.769489,48.3009 L 4.392568,712.7593 33.8442,759.6932 45.663082,718.24615 48.49789,688.434 q 16.3952,-16.65275 27.866055,-55.27604 1.143855,-4.90966 1.474675,-10.03632 l 0.53504,-20.99934 1.78204,-25.3587 q 0.49912,-10.51104 -0.359336,-16.7775 -1.239739,-11.8843 -9.739004,-13.8529 -2.41451,-0.6724 -6.305086,-0.753 -10.551697,0.5641 -16.19006,0.5641 -4.353241,0 -5.777654,-0.33627 -0.06453,0.003 -0.140574,0.003 -3.218966,0 -27.095639,-5.35326 -5.468085,-0.9215 -9.9610024,-0.9215 z"
             id="path1117" />
        </g>
        <g
           style="fill:#ff0d00;fill-opacity:0.109804;stroke-linejoin:miter"
           id="g1123">
          <path
             d="m -20.208225,671.3396 32.200869,38.8576 32.79928,-20.2785 q -9.479784,4.8319 -17.890534,6.0832 -8.166325,1.1693 -15.146876,-0.82935 -14.5063572,-4.39135 -31.962739,-23.83295 z"
             id="path1121" />
        </g>
        <g
           style="fill:#000000;fill-opacity:0.235294;stroke-linejoin:miter"
           id="g1127">
          <path
             d="m -21.605038,669.6873 0.2729,0.323 0.771246,0.9121 0.241992,0.28567 q 0.01624,0.0191 0.01657,0.0193 h 6e-6 q 0,-1.6e-4 -0.01571,-0.0191 l -1.256994,-1.49144 z"
             id="path1125" />
        </g>
        <g
           style="fill:#000000;fill-opacity:0.117647;stroke-linejoin:miter"
           id="g1131">
          <path
             d="m -77.97836,798.40216 7.77899,76.97874 q 1.58419,-11.0587 1.86869,-18.4765 0.17468,-3.07676 0.0094,-8.21617 -0.07709,-2.69003 -0.48116,-6.97323 -0.78376,-8.1677 -3.597234,-21.03727 -2.81015,-12.39929 -5.578656,-22.27557 z"
             id="path1129" />
        </g>
        <g
           style="fill:#000000;fill-opacity:0.117647;stroke-linejoin:miter"
           id="g1135">
          <path
             d="m 153.49185,823.8494 -3.59349,69.7475 q 3.59981,-8.9134 5.86542,-17.2875 0.71466,-2.4728 1.62062,-8.0613 0.45773,-3.1789 0.61081,-6.2851 l 0.0896,-3.2471 -0.0576,-3.49276 -0.20491,-3.73834 -0.35206,-3.984 -0.49917,-4.2297 q -1.14052,-8.68113 -3.47916,-19.4217 z"
             id="path1133" />
        </g>
        <g
           style="fill:#000000;fill-opacity:0.117647;stroke-linejoin:miter"
           id="g1139">
          <path
             d="m 70.20053,967.692 -5.497794,0.0563 q -22.553501,0.452 -54.104552,4.51824 l 125.707546,2.66931 Q 111.6196,970.5789 97.945854,969.2088 90.08332,968.4395 88.58391,968.3739 85.508965,968.1507 82.49488,968.00085 76.707695,967.7021 70.20053,967.692 Z"
             id="path1137" />
        </g>
        <g
           style="fill:#000000;fill-opacity:0.117647;stroke-linejoin:miter"
           id="g1143">
          <path
             d="m 391.23517,1123.7418 -11.08587,15.7182 4.9146,10e-4 q 3.06553,-6.8557 6.17127,-15.7192 z"
             id="path1141" />
        </g>
        <g
           style="fill:#000000;fill-opacity:0.117647;stroke-linejoin:miter"
           id="g1147">
          <path
             d="m 226.32822,1078.8467 3.50668,1.6131 q 19.07336,8.3959 29.5513,21.2767 9.7785,10.4689 17.98007,37.7247 l 10.56381,10e-5 -2.18603,-34.317 z"
             id="path1145" />
        </g>
      </g>
    </g>
  </g>
  <g
     inkscape:label="Camada 1"
     inkscape:groupmode="layer"
     id="layer1"
     transform="translate(9.071149,-113.88509)">
    <g
       id="layer4"
       inkscape:label="fundo-texto"
       transform="translate(349.21151,70.065483)" />
    <g
       id="layer3"
       inkscape:label="logo"
       transform="translate(349.21151,70.065483)" />
    <flowRoot
       transform="matrix(0.26458333,0,0,0.26458333,475.65376,-343.52556)"
       style="font-style:normal;font-variant:normal;font-weight:bold;font-stretch:normal;font-size:84.68px;line-height:1.25;font-family:Roboto;-inkscape-font-specification:'Roboto, Bold';font-variant-ligatures:normal;font-variant-caps:normal;font-variant-numeric:normal;font-feature-settings:normal;text-align:center;letter-spacing:0px;word-spacing:0px;writing-mode:lr-tb;text-anchor:middle;fill:#000000;fill-opacity:1;stroke:none"
       id="flowRoot6129"
       xml:space="preserve"><flowRegion
         id="flowRegion6131"><rect
           y="-140.00246"
           x="-129.29953"
           height="84.852814"
           width="20.203051"
           id="rect6133" /></flowRegion><flowPara
         id="flowPara6135">Programação orientada a </flowPara></flowRoot>
    <text
       xml:space="preserve"
       style="font-style:normal;font-variant:normal;font-weight:bold;font-stretch:normal;font-size:22.4049px;line-height:1.25;font-family:Roboto;-inkscape-font-specification:'Roboto, Bold';font-variant-ligatures:normal;font-variant-caps:normal;font-variant-numeric:normal;font-feature-settings:normal;text-align:center;letter-spacing:0px;word-spacing:0px;writing-mode:lr-tb;text-anchor:middle;fill:#000000;fill-opacity:1;stroke:none;stroke-width:0.264583"
       x="377.18173"
       y="175.81845"
       id="text1006" />
    <flowRoot
       transform="matrix(0.26458333,0,0,0.26458333,574.01799,-218.49673)"
       style="font-style:normal;font-variant:normal;font-weight:bold;font-stretch:normal;font-size:84.68px;line-height:1.25;font-family:Roboto;-inkscape-font-specification:'Roboto, Bold';font-variant-ligatures:normal;font-variant-caps:normal;font-variant-numeric:normal;font-feature-settings:normal;text-align:center;letter-spacing:0px;word-spacing:0px;writing-mode:lr-tb;text-anchor:middle;fill:#000000;fill-opacity:1;stroke:none"
       id="flowRoot6129-6"
       xml:space="preserve"><flowRegion
         id="flowRegion6131-4"><rect
           y="-140.00246"
           x="-129.29953"
           height="84.852814"
           width="20.203051"
           id="rect6133-5" /></flowRegion><flowPara
         id="flowPara6135-8">Programação orientada a </flowPara></flowRoot>
    <text
       xml:space="preserve"
       style="font-style:normal;font-variant:normal;font-weight:bold;font-stretch:normal;font-size:22.4049px;line-height:1.25;font-family:Roboto;-inkscape-font-specification:'Roboto, Bold';font-variant-ligatures:normal;font-variant-caps:normal;font-variant-numeric:normal;font-feature-settings:normal;text-align:center;letter-spacing:0px;word-spacing:0px;writing-mode:lr-tb;text-anchor:middle;fill:#000000;fill-opacity:1;stroke:none;stroke-width:0.264583"
       x="475.54596"
       y="300.84729"
       id="text1006-7" />
  </g>
</svg>
