<?xml version="1.0" encoding="UTF-8" standalone="no"?>
<!-- Created with Inkscape (http://www.inkscape.org/) -->

<svg
   width="700mm"
   height="700mm"
   viewBox="0 0 700 700.00001"
   version="1.1"
   id="svg8"
   inkscape:version="1.2.1 (9c6d41e410, 2022-07-14)"
   sodipodi:docname="icon.svg"
   xmlns:inkscape="http://www.inkscape.org/namespaces/inkscape"
   xmlns:sodipodi="http://sodipodi.sourceforge.net/DTD/sodipodi-0.dtd"
   xmlns="http://www.w3.org/2000/svg"
   xmlns:svg="http://www.w3.org/2000/svg"
   xmlns:rdf="http://www.w3.org/1999/02/22-rdf-syntax-ns#"
   xmlns:cc="http://creativecommons.org/ns#"
   xmlns:dc="http://purl.org/dc/elements/1.1/">
  <defs
     id="defs2">
    <style
       id="style832"
       type="text/css">  .fil0 {fill:#F0F0F0} .fil1 {fill:#011627;fill-rule:nonzero}  </style>
  </defs>
  <sodipodi:namedview
     id="base"
     pagecolor="#ffffff"
     bordercolor="#666666"
     borderopacity="1.0"
     inkscape:pageopacity="0.0"
     inkscape:pageshadow="2"
     inkscape:zoom="0.24748737"
     inkscape:cx="-444.46713"
     inkscape:cy="1454.6197"
     inkscape:document-units="mm"
     inkscape:current-layer="layer1"
     showgrid="false"
     inkscape:window-width="2560"
     inkscape:window-height="1017"
     inkscape:window-x="-8"
     inkscape:window-y="-8"
     inkscape:window-maximized="1"
     inkscape:showpageshadow="2"
     inkscape:pagecheckerboard="0"
     inkscape:deskcolor="#d1d1d1" />
  <metadata
     id="metadata5">
    <rdf:RDF>
      <cc:Work
         rdf:about="">
        <dc:format>image/svg+xml</dc:format>
        <dc:type
           rdf:resource="http://purl.org/dc/dcmitype/StillImage" />
        <dc:title />
      </cc:Work>
    </rdf:RDF>
  </metadata>
  <g
     inkscape:label="Camada 1"
     inkscape:groupmode="layer"
     id="layer1"
     transform="translate(490.81516,431.27823)">
    <flowRoot
       xml:space="preserve"
       id="flowRoot6129"
       style="font-style:normal;font-variant:normal;font-weight:bold;font-stretch:normal;font-size:84.68px;line-height:1.25;font-family:Roboto;-inkscape-font-specification:'Roboto, Bold';font-variant-ligatures:normal;font-variant-caps:normal;font-variant-numeric:normal;font-feature-settings:normal;text-align:center;letter-spacing:0px;word-spacing:0px;writing-mode:lr-tb;text-anchor:middle;fill:#000000;fill-opacity:1;stroke:none"
       transform="matrix(0.26458333,0,0,0.26458333,-372.6828,-423.3198)"><flowRegion
         id="flowRegion6131"><rect
           id="rect6133"
           width="20.203051"
           height="84.852814"
           x="-129.29953"
           y="-140.00246" /></flowRegion><flowPara
         id="flowPara6135">Programação orientada a </flowPara></flowRoot>
    <path
       id="path1067-5"
       style="fill:#263238;fill-opacity:1;stroke-width:4.61568;stroke:none"
       d="M -32.374926 -416.39697 L -57.321207 -335.36264 L -40.714985 -329.57488 L -9.8894764 -408.56024 L -32.374926 -416.39697 z M 77.517591 -359.64643 L 26.360507 -292.03092 L 39.985515 -280.91273 L 95.966595 -344.59205 L 77.517591 -359.64643 z M -56.818912 -323.9437 C -57.037638 -323.94196 -57.257047 -323.93452 -57.476753 -323.92199 C -59.181422 -323.80327 -60.783661 -323.38161 -62.283694 -322.65695 C -63.783728 -321.93229 -65.119157 -320.91279 -66.290168 -319.59823 C -67.44271 -318.33663 -68.323681 -316.83175 -68.932901 -315.08377 C -69.542123 -313.33579 -69.79693 -311.58282 -69.696679 -309.82518 C -69.577961 -308.12051 -69.156299 -306.51828 -68.431639 -305.01824 C -67.706977 -303.5182 -66.713575 -302.19221 -65.451976 -301.03967 C -64.137406 -299.86866 -62.63253 -298.98769 -60.937523 -298.39694 C -59.24251 -297.80618 -57.542762 -297.57025 -55.838093 -297.68897 C -54.080457 -297.78922 -52.451603 -298.20144 -50.95157 -298.9261 C -49.451527 -299.65077 -48.125542 -300.64417 -46.973001 -301.90576 C -45.74903 -303.20188 -44.832003 -304.72392 -44.222781 -306.47189 C -43.613561 -308.21987 -43.39481 -309.95516 -43.566491 -311.6783 C -43.666739 -313.43593 -44.079473 -315.06478 -44.804141 -316.56482 C -45.528804 -318.06485 -46.548304 -319.40028 -47.862869 -320.57129 C -49.124468 -321.72383 -50.602728 -322.59588 -52.297741 -323.18664 C -53.780871 -323.70355 -55.287825 -323.95583 -56.818912 -323.9437 z M -298.7504 -293.40241 L -288.0234 -274.71879 L -196.43313 -266.24438 L -157.26136 -182.51047 L -156.70015 -182.40712 C -158.79652 -179.86688 -160.96352 -177.32313 -163.2057 -174.76882 L -269.03955 -191.13785 L -342.11571 -102.92205 L -320.62813 -101.35832 L -262.3552 -172.52555 L -177.93607 -159.22455 C -194.34538 -143.24053 -216.31936 -125.88584 -250.9373 -104.46252 C -266.06253 -95.089763 -279.72504 -82.883656 -290.46563 -67.651847 L -382.53701 -11.874889 L -381.81251 102.67522 L -364.34639 90.061007 L -365.45227 -1.9137403 L -306.12462 -37.626289 C -327.44839 20.867877 -303.83974 87.848738 -247.74834 119.21633 C -196.12878 148.0832 -133.20378 137.72216 -93.357767 97.853297 L -81.84064 153.78218 L -150.20339 215.3221 L -147.63559 236.71304 L -62.935851 159.58906 L -78.953995 80.675534 C -76.461797 77.11488 -74.124339 73.395867 -71.957522 69.521176 C -60.492776 49.019971 -55.591823 26.741926 -55.509431 4.8253833 C -55.380707 -35.887751 -52.099149 -63.694965 -47.071186 -86.044522 L 8.4618582 -21.078462 L -21.663952 65.829412 L -9.0822905 83.318267 L 27.819333 -25.12731 L -41.539224 -106.73215 C -39.88641 -112.08658 -38.144753 -117.23303 -36.328173 -122.29037 C -33.944501 -128.9321 -32.390892 -134.35743 -31.679878 -138.96584 L -31.083532 -137.74524 L 60.0985 -122.52602 L 92.884095 -36.586043 L 113.76396 -31.276289 L 72.324627 -138.07029 L -35.512719 -156.38235 C -38.081438 -159.41888 -41.830793 -162.12142 -46.872749 -164.941 L -110.81407 -200.69851 C -117.25266 -204.29911 -122.42937 -206.2195 -127.25544 -206.12712 C -132.97928 -206.01753 -138.21535 -203.05833 -144.47093 -196.73234 L -184.74754 -282.19896 L -298.7504 -293.40241 z M -39.18743 -287.95054 C -46.010693 -287.90454 -52.721285 -285.81421 -58.367138 -281.98657 L -5.0716826 -252.18219 C -4.61024 -264.56337 -10.974245 -277.21296 -22.532116 -283.67639 C -27.800309 -286.62248 -33.532442 -287.98867 -39.18743 -287.95054 z M -58.367138 -281.98657 L -58.369205 -281.9876 L -58.371272 -281.98347 C -58.369847 -281.98443 -58.368562 -281.9856 -58.367138 -281.98657 z M 18.593023 -281.85531 C 18.179602 -281.85329 17.766111 -281.83114 17.351755 -281.78916 C 15.694331 -281.62124 14.090153 -281.12016 12.540162 -280.28538 C 11.02563 -279.49406 9.6833445 -278.38128 8.5130179 -276.94708 C 7.3426959 -275.51289 6.5043501 -273.95269 5.9974092 -272.26675 C 5.5259312 -270.62428 5.3737048 -268.9746 5.541623 -267.31718 C 5.7095465 -265.65975 6.1894934 -264.07334 6.9808117 -262.55881 C 7.8155941 -261.00882 8.9283708 -259.66653 10.319109 -258.53167 C 11.709843 -257.39681 13.226237 -256.59348 14.868702 -256.122 C 16.554637 -255.61506 18.22648 -255.44558 19.8839 -255.6135 C 21.54132 -255.78142 23.127217 -256.26138 24.641749 -257.05269 C 26.235204 -257.85201 27.61691 -258.96868 28.787233 -260.40287 C 29.957559 -261.83707 30.757001 -263.39287 31.185019 -265.0708 C 31.691956 -266.75673 31.861429 -268.42858 31.693515 -270.086 C 31.525597 -271.74343 31.024001 -273.34709 30.189214 -274.89708 C 29.397896 -276.41161 28.307279 -277.73665 26.916546 -278.87151 C 25.525807 -280.00638 23.987253 -280.82696 22.301324 -281.33389 C 21.069475 -281.6875 19.833286 -281.86136 18.593023 -281.85531 z M -79.84438 -281.76643 C -82.00563 -281.70154 -84.162056 -280.42484 -85.376342 -278.25346 L -88.404064 -272.83881 C -90.172553 -269.6764 -89.283362 -265.81029 -86.415038 -264.20626 L -5.5502064 -218.98473 C -2.6778604 -217.37845 1.0859594 -218.64282 2.8544486 -221.80523 L 5.8821707 -227.21937 C 7.6484049 -230.37773 6.7551556 -234.24614 3.8828096 -235.85243 L -76.982022 -281.07396 C -77.878373 -281.57522 -78.861993 -281.79592 -79.84438 -281.76643 z M -93.627518 -257.11987 C -95.788918 -257.05471 -97.94571 -255.77692 -99.161547 -253.60277 L -102.18927 -248.18811 C -103.95551 -245.02975 -103.06599 -241.16373 -100.19766 -239.5597 L -19.332828 -194.33817 C -16.460482 -192.73189 -12.696991 -193.99616 -10.930757 -197.15454 L -7.9030343 -202.56868 C -6.1345453 -205.73108 -7.0279824 -209.59959 -9.9003285 -211.20587 L -90.76516 -256.4274 C -91.661511 -256.92867 -92.645063 -257.14949 -93.627518 -257.11987 z M -107.41221 -232.46969 C -109.5733 -232.40507 -111.72936 -231.12896 -112.9421 -228.96035 L -115.97241 -223.54156 C -117.7364 -220.38721 -116.84706 -216.5213 -113.97873 -214.91728 L -33.113899 -169.69575 C -30.241552 -168.08947 -26.477878 -169.35363 -24.713895 -172.50798 L -21.683589 -177.92625 C -19.919604 -181.0806 -20.813187 -184.9489 -23.685534 -186.55518 L -104.55037 -231.77671 C -105.44672 -232.27797 -106.42989 -232.49907 -107.41221 -232.46969 z M -93.546902 -168.79709 C -91.449452 -168.78067 -89.411527 -168.27983 -87.55502 -167.24163 C -80.128998 -163.08884 -78.50435 -151.96023 -83.912348 -142.28967 L -165.46654 3.5443245 L -118.88024 29.596481 C -109.20968 35.004479 -105.77813 47.143385 -111.18614 56.813941 L -125.41938 82.265618 L -155.58084 35.767681 L -162.09724 45.259608 L -139.82521 79.090101 L -179.4445 70.527316 L -185.9609 80.019243 L -130.68417 91.68003 L -134.97228 99.348296 C -140.38029 109.01885 -152.5197 112.45091 -162.19026 107.04292 L -208.83392 80.958204 C -214.4355 89.532081 -224.03755 93.27907 -231.05065 89.357174 C -238.06379 85.435275 -239.89916 75.292262 -235.52687 66.03095 L -282.17053 39.946754 C -291.84108 34.538754 -295.27262 22.399333 -289.86464 12.728777 L -277.96924 -8.542793 L -248.26976 37.242009 L -241.75336 27.750082 L -264.00265 -6.1129671 L -224.4061 2.4828906 L -217.8897 -7.0090365 L -272.39697 -18.507043 L -266.07849 -29.805578 C -260.6705 -39.476133 -248.53158 -42.90768 -238.86103 -37.499682 L -192.27524 -11.447525 L -110.72105 -157.28152 C -106.66504 -164.53444 -99.839253 -168.84637 -93.546902 -168.79709 z M -170.40991 10.162008 L -239.3225 54.333472 L -229.0699 61.371803 L -160.25653 17.132642 L -170.40991 10.162008 z " />
  </g>
</svg>
