<svg version="1" xmlns="http://www.w3.org/2000/svg" width="682.667" height="682.667" viewBox="0 0 512.000000 512.000000"><path d="M330.7 26.2c-2.6 8.4-6.6 21.7-9.1 29.5l-4.3 14.1 5.6 2.1c3 1.1 5.8 1.7 6.2 1.3.8-.8 21.9-54.9 21.9-56 0-.5-3-1.8-6.7-3.1-3.8-1.2-7.3-2.4-7.9-2.7-.6-.3-2.9 5.8-5.7 14.8zM397.2 77c-10 13.3-18.2 24.4-18.1 24.8 0 .9 7.8 7.2 8.9 7.2.7 0 15.3-16.3 37.8-42.1l3.1-3.6-6.3-5.1c-3.5-2.9-6.6-5.2-6.8-5.2-.3 0-8.7 10.8-18.6 24zM311.5 81.2c-1.5 1.4-2.8 3.8-3.1 5.9-.5 2.8-.1 4.1 2.1 6.7 2.2 2.7 3.4 3.2 7 3.2s4.8-.5 6.9-3.1c3.5-4.1 3.4-8.3-.3-12-3.7-3.7-8.8-3.9-12.6-.7zM144 106.7c1.8 3.2 3.6 6.2 4.1 6.8.5.5 15.8 2.3 34.1 4l33.2 3 14.3 30.5c7.8 16.8 14.3 30.8 14.3 31.2 0 .4-1 1.8-2.2 3.2l-2.3 2.6-38-6c-20.9-3.3-38.3-6-38.6-6-.9 0-53.1 63.1-52.7 63.6.2.2 3.5.6 7.4 1l6.9.6 21.4-26.2c19.7-24.1 21.5-26.1 24-25.6 1.4.3 14.3 2.4 28.6 4.6 14.3 2.2 27 4.2 28.2 4.5 2.1.5 1.6 1.1-4.5 6.7-9.5 8.7-19.7 16.2-38.9 29s-25.2 17.6-32.1 26.2c-4.6 5.6-7.7 7.8-38.7 26.5l-33.7 20.4.6 3.6c.3 2 .6 20.6.6 41.4v37.8l6-4.2 6-4.2v-34.1l.1-34.1 21.2-12.7c11.7-6.9 21.3-12.5 21.4-12.4.1.1-.8 3.3-2 7.1-1.8 6-2.1 9.6-2.1 24.5 0 16.2.2 18.1 2.7 26.3 7.8 25.1 23.5 44.6 46 56.7 14.4 7.8 27.3 11 44.3 11 23.4 0 43.1-7 61-21.8 3.5-2.9 6.4-5 6.4-4.8 0 .3 1.8 9.2 4 19.8 2.3 10.6 3.9 19.7 3.8 20.3-.2.7-11.4 11.2-25 23.4L249.2 473l.5 4.3c.3 2.3.8 5.6 1.2 7.4l.6 3.2 30.6-27.9 30.6-27.9-5.8-28.6-5.9-28.6 4-6.8c9.2-15.5 12.6-30.1 13.4-59.1.4-10.7 1.1-23.8 1.6-29 1.2-11.7 4-27 4.9-26.9 1 0 39.6 45.8 39.8 47.2.1.6-4.6 15.1-10.6 32.2l-10.8 31 4 5.8c2.3 3.1 4.3 5.7 4.7 5.7.3 0 6.5-17.5 13.8-38.9l13.3-39-24.8-29.1c-13.6-16.1-25-29.7-25.2-30.2-.2-.6 1.2-6 3-11.9 2.3-7.4 3.9-10.9 4.9-10.9 4-.1 64.7 10.4 65.7 11.4.6.6 6.1 14.1 12.1 30.1 6.1 15.9 11.3 29.7 11.7 30.6.3.9 2.8 2.1 5.8 2.8 2.9.6 6.2 1.4 7.3 1.7 1.9.5.4-4.1-12.6-37.6-8.2-21-15.1-38.5-15.5-38.8-.4-.4-18.2-3.7-39.6-7.3-32.4-5.5-39.3-7-41.2-8.7-2.4-2.2-45.5-26.7-55.2-31.3-8.8-4.3-13.6-3.8-19.6 1.8l-2.6 2.4-14.9-31.6c-8.8-18.8-15.4-31.5-16.2-31.5-2 0-72.1-6.9-77.1-7.6l-4.4-.6 3.3 5.9zm152.7 87.7c2.5 2.1 2.8 3.1 2.8 8.3 0 5.8-.2 6.2-30.6 60.5L238.2 318l16.6 9.2c9.2 5.1 18.1 10.6 19.9 12.1 3.6 3.2 5.6 8.9 4.7 13.3-.3 1.6-5.2 11-10.7 20.9-9.7 17.1-10.4 18.1-15 20.4-3.4 1.7-5.6 2.1-8 1.7-1.8-.3-11.3-5.1-21.2-10.6l-18-9.9-2.5 2.3c-5.6 5.3-11.2 6-15.7 2.2-2.6-2.2-2.8-3-2.8-9.4v-7l-15.9-8.8c-17.6-9.8-20.9-12.2-23.2-16.7-2.8-5.4-1.4-9.9 8.6-27.7 9.8-17.6 11.8-20.3 16.4-22.7 5.3-2.7 9.9-1.3 28.2 9.1 9.5 5.3 17.6 9.6 18.2 9.6.5 0 14.4-24 30.7-53.3 16.4-29.2 30.5-54.1 31.4-55.1 5-5.8 12.2-7.2 16.8-3.2z"/><path d="M208.2 341.4l-12.1 22.1 2.9.9c1.6.5 3.5.6 4.3.3 1.3-.5 23.2-39.6 23.9-42.6.2-1-.9-1.7-3.3-2.1l-3.6-.6-12.1 22zM186.7 326.4c-7.7 1.8-14.3 3.9-14.8 4.7-.5.8-.9 2.6-.9 4.2 0 2.4 1.4 3.6 11.5 10.2 6.3 4.1 11.9 7.5 12.4 7.5.8 0 2.6-8.9 1.9-9.4-.2-.2-3.1-1.9-6.6-3.8-6.9-3.8-6.8-4.2 2.2-5.3 3.7-.5 5.9-1.3 6.5-2.4.7-1.4 2.3-9.3 1.8-9-.1.1-6.4 1.6-14 3.3zM227.5 333c-.4 2.8-.5 5.3-.4 5.4.2.2 3 1.8 6.2 3.6 6.7 3.7 6.3 4.5-2 5.6-6 .7-6.8 1.4-7.7 7l-.6 4.1 14.1-3.2c7.7-1.8 14.1-3.4 14.3-3.6.2-.2.6-2 1-4.1l.7-3.6-10.3-6.7c-5.7-3.8-11.3-7.4-12.4-8.2-2.1-1.4-2.2-1.2-2.9 3.7zM322.6 106.4c-2.1.8-4.2 1.8-4.7 2.3-.6.6 32 19.7 36.3 21.2 1.5.5.3-7.1-1.8-11.3-5.4-10.5-19.1-16.2-29.8-12.2zM370.4 109.8c-3.7.5-6.9 4.9-6.9 9.4 0 8.2 9.6 11.8 15.6 5.9 3.7-3.7 3.8-7.9.4-11.9-2.5-3-5.2-4-9.1-3.4zM296 113.2c-4.1 6.7-4.4 6.4 29.3 25.3 21 11.7 31.5 17.1 32.9 16.7 1.1-.2 2.9-2.4 4.1-4.9 2.1-4.3 2.1-4.3.2-6.2-3.3-3.1-59.8-34.1-62.3-34.1-1.4 0-2.9 1.1-4.2 3.2zM286 131.2c-3.4 5.5-2.4 7.5 5.5 12 39.6 22.4 55.3 30.8 56.9 30.2.9-.3 2.6-2.4 3.7-4.6 1.7-3.4 1.8-4.3.7-5.9-1.7-2.6-59.7-34.9-62.6-34.9-1.4 0-2.9 1.1-4.2 3.2zM276 149.2c-4.2 6.8-4.5 6.6 29.6 25.6 21.1 11.7 31.6 17.1 32.8 16.6 2.6-1 5.9-8 4.7-10.2-1.2-2.3-60.1-35.2-63-35.2-1.3 0-2.9 1.2-4.1 3.2z"/></svg>